<?xml version="1.0" encoding="UTF-8" standalone="no"?>
<svg
   version="1.1"
   id="Layer_1"
   x="0px"
   y="0px"
   viewBox="0 0 122.88 97.05"
   style="enable-background:new 0 0 122.88 97.05"
   xml:space="preserve"
   sodipodi:docname="module_image.svg"
   inkscape:version="1.1.2 (0a00cf5339, 2022-02-04)"
   inkscape:export-filename="/home/marc/www/hhdev/protected/modules/analytics/resources/module_image.png"
   inkscape:export-xdpi="347.45001"
   inkscape:export-ydpi="347.45001"
   xmlns:inkscape="http://www.inkscape.org/namespaces/inkscape"
   xmlns:sodipodi="http://sodipodi.sourceforge.net/DTD/sodipodi-0.dtd"
   xmlns:xlink="http://www.w3.org/1999/xlink"
   xmlns="http://www.w3.org/2000/svg"
   xmlns:svg="http://www.w3.org/2000/svg"><defs
     id="defs9"><linearGradient
       inkscape:collect="always"
       id="linearGradient1095"><stop
         style="stop-color:#ce2c8d;stop-opacity:1;"
         offset="0"
         id="stop1091" /><stop
         style="stop-color:#ffffff;stop-opacity:1"
         offset="1"
         id="stop1093" /></linearGradient><linearGradient
       inkscape:collect="always"
       xlink:href="#linearGradient1095"
       id="linearGradient1097"
       x1="65.836899"
       y1="43.841801"
       x2="-4.2705827"
       y2="-88.977081"
       gradientUnits="userSpaceOnUse" /></defs><sodipodi:namedview
     id="namedview7"
     pagecolor="#ffffff"
     bordercolor="#666666"
     borderopacity="1.0"
     inkscape:pageshadow="2"
     inkscape:pageopacity="0.0"
     inkscape:pagecheckerboard="0"
     showgrid="false"
     inkscape:zoom="1.3704276"
     inkscape:cx="5.837594"
     inkscape:cy="85.739663"
     inkscape:window-width="1320"
     inkscape:window-height="704"
     inkscape:window-x="46"
     inkscape:window-y="27"
     inkscape:window-maximized="1"
     inkscape:current-layer="layer1" /><g
     inkscape:groupmode="layer"
     id="layer2"
     inkscape:label="Layer 2"><path
       sodipodi:type="star"
       style="fill:url(#linearGradient1097);fill-opacity:1;stroke:#3bb0f4;stroke-width:0;stroke-miterlimit:4;stroke-dasharray:none"
       id="path859"
       inkscape:flatsided="true"
       sodipodi:sides="4"
       sodipodi:cx="63.406307"
       sodipodi:cy="46.851624"
       sodipodi:r1="86.300095"
       sodipodi:r2="61.02338"
       sodipodi:arg1="0.78539816"
       sodipodi:arg2="1.5707963"
       inkscape:rounded="0.15"
       inkscape:randomized="0"
       d="m 124.42969,107.87501 c -12.94501,12.94501 -109.10175,12.94501 -122.0467647,0 -12.9450143,-12.945018 -12.9450143,-109.1017541 -4e-7,-122.046768 12.9450141,-12.945015 109.1017451,-12.945015 122.0467651,-10e-7 12.94501,12.9450144 12.94501,109.10175 0,122.046769 z"
       inkscape:export-filename="/home/marc/www/hhdev/protected/modules/module-model/resources/module_image.png"
       inkscape:export-xdpi="347.45001"
       inkscape:export-ydpi="347.45001" /></g><g
     inkscape:groupmode="layer"
     id="layer1"
     inkscape:label="Layer 1"><g
       id="g835"
       transform="matrix(5.017354,0,0,5.017354,2.570812,-14.83306)"
       style="fill:#ffffff"><path
         d="M 17.2929,2.29289 C 17,2.58579 17,3.05719 17,4 v 13 c 0,0.9428 0,1.4142 0.2929,1.7071 C 17.5858,19 18.0572,19 19,19 c 0.9428,0 1.4142,0 1.7071,-0.2929 C 21,18.4142 21,17.9428 21,17 V 4 C 21,3.05719 21,2.58579 20.7071,2.29289 20.4142,2 19.9428,2 19,2 18.0572,2 17.5858,2 17.2929,2.29289 Z"
         fill="#1c274c"
         id="path2"
         style="fill:#ffffff" /><path
         d="M 10,7 C 10,6.05719 10,5.58579 10.2929,5.29289 10.5858,5 11.0572,5 12,5 12.9428,5 13.4142,5 13.7071,5.29289 14,5.58579 14,6.05719 14,7 v 10 c 0,0.9428 0,1.4142 -0.2929,1.7071 C 13.4142,19 12.9428,19 12,19 11.0572,19 10.5858,19 10.2929,18.7071 10,18.4142 10,17.9428 10,17 Z"
         fill="#1c274c"
         id="path4"
         style="fill:#ffffff" /><path
         d="M 3.29289,9.29289 C 3,9.58579 3,10.0572 3,11 v 6 c 0,0.9428 0,1.4142 0.29289,1.7071 C 3.58579,19 4.05719,19 5,19 5.94281,19 6.41421,19 6.70711,18.7071 7,18.4142 7,17.9428 7,17 V 11 C 7,10.0572 7,9.58579 6.70711,9.29289 6.41421,9 5.94281,9 5,9 4.05719,9 3.58579,9 3.29289,9.29289 Z"
         fill="#1c274c"
         id="path6"
         style="fill:#ffffff" /><path
         d="m 3,21.25 c -0.41421,0 -0.75,0.3358 -0.75,0.75 0,0.4142 0.33579,0.75 0.75,0.75 h 18 c 0.4142,0 0.75,-0.3358 0.75,-0.75 0,-0.4142 -0.3358,-0.75 -0.75,-0.75 z"
         fill="#1c274c"
         id="path8"
         style="fill:#ffffff" /></g></g></svg>
